# xmcd
#
# Track frame offsets:
#	150
#	15705
#	30430
#	47732
#	64137
#	80562
#	94265
#	109642
#	122385
#	138097
#
# Disc length: 2134 seconds
#
# Revision: 0
# Processed by: cddbd v1.5.1PL2 Copyright (c) Steve Scherf et al.
# Submitted via: EasyCDDAExtractor 9.1.3.1
#
DISCID=7608540a
DTITLE=Chris Agullo - J'vous aime
DYEAR=1996
DGENRE=Chanson
TTITLE0=La plus belle du quartier
TTITLE1=Non, je n'aurais jamais pensé
TTITLE2=Dis-moi
TTITLE3=Quand papa me parlais d'Elvis
TTITLE4=Les yeux au ciel
TTITLE5=Y'a qu'son corp
TTITLE6=La nuit est nous "Rosas"
TTITLE7=Ce qui m'plait
TTITLE8=J'vous aime
TTITLE9=Love me tender (Live avec Ricky Norton)
EXTD=
EXTT0=
EXTT1=
EXTT2=
EXTT3=
EXTT4=
EXTT5=
EXTT6=
EXTT7=
EXTT8=
EXTT9=
PLAYORDER=
